<?xml version="1.0" standalone="no"?>
<!DOCTYPE svg PUBLIC "-//W3C//DTD SVG 20010904//EN"
 "http://www.w3.org/TR/2001/REC-SVG-20010904/DTD/svg10.dtd">
<svg version="1.0" xmlns="http://www.w3.org/2000/svg"
 width="444.000000pt" height="444.000000pt" viewBox="0 0 444.000000 444.000000"
 preserveAspectRatio="xMidYMid meet">
<metadata>
Created by potrace 1.11, written by Peter Selinger 2001-2013
</metadata>
<g transform="translate(0.000000,444.000000) scale(0.100000,-0.100000)"
fill="#000000" stroke="none">
<path d="M1930 4425 c-592 -82 -1127 -393 -1479 -860 -238 -314 -383 -670
-437 -1065 -18 -135 -18 -425 0 -560 33 -244 98 -462 200 -675 117 -243 246
-425 436 -615 334 -334 734 -540 1210 -625 128 -23 445 -31 591 -16 764 80
1426 544 1764 1236 155 317 225 619 225 975 0 255 -35 474 -112 705 -268 806
-975 1386 -1828 1501 -131 17 -441 17 -570 -1z m91 -1800 c96 -211 177 -384
180 -385 4 0 85 173 180 385 l174 385 227 0 228 0 0 -770 0 -770 -195 0 -195
0 -2 517 -3 517 -142 -330 -142 -329 -138 -3 -139 -3 -139 323 c-76 178 -142
327 -147 332 -4 6 -8 -223 -8 -507 l0 -517 -185 0 -185 0 0 770 0 770 229 0
229 0 173 -385z"/>
</g>
</svg>
